<?xml version="1.0" encoding="UTF-8"?>
<svg id="Layer_1" xmlns="http://www.w3.org/2000/svg" version="1.1" viewBox="0 0 1535.17 291.33">
  <!-- Generator: Adobe Illustrator 29.8.4, SVG Export Plug-In . SVG Version: 2.1.1 Build 6)  -->
  <defs>
    <style>
      .st0, .st1, .st2 {
        fill: #061e40;
      }

      .st1 {
        font-family: Montserrat-Bold, Montserrat;
        font-size: 28.41px;
      }

      .st1, .st2 {
        font-weight: 700;
      }

      .st3 {
        fill: #d9291c;
      }

      .st2 {
        font-family: FFShamelFamily-SansOneBold, 'FF Shamel Family';
        font-size: 17.79px;
      }
    </style>
  </defs>
  <g>
    <g>
      <path class="st3" d="M864.9,109.52c-18.31-8.72-43.76-14.9-71.74-17.44,0,0,0,0,0,0-7.3-10.29-14.95-19.75-22.71-28.11,3.78-3.68,7.57-7.07,11.35-10.13,18.02-14.6,33.63-19.92,42.84-14.61,4.6,2.66,7.71,8.07,9.2,15.74-4.04,1.4-7.62,4.19-9.92,8.18-5.09,8.82-2.06,20.1,6.77,25.19,8.83,5.1,20.12,2.09,25.21-6.73,5.09-8.82,2.06-20.1-6.77-25.19-1.53-.88-3.14-1.51-4.77-1.92-1.92-11.58-6.8-19.86-14.49-24.3-13.34-7.7-32.74-2.18-54.62,15.54-4.02,3.26-8.06,6.86-12.08,10.78,0,0,0,0,0,0,0,0,0,0,0,0-4-3.91-8.05-7.53-12.08-10.78-21.88-17.74-41.26-23.23-54.6-15.56-11.73,6.79-16.94,22.34-15.1,45.03,1.67,20.16,9,45.2,20.76,70.59-5.26,11.47-9.63,22.83-12.97,33.73,0,0,0,0,0,0,0,0,0,0-.01,0-5.08-1.44-9.92-3.02-14.46-4.77-21.65-8.31-34.07-19.16-34.07-29.79,0-5.28,3.14-10.69,9.03-15.83,3.23,2.8,7.43,4.5,12.04,4.5,10.18,0,18.43-8.27,18.43-18.46s-8.25-18.46-18.43-18.46-18.43,8.27-18.43,18.46c0,1.77.26,3.47.73,5.09-9.07,7.47-13.8,15.84-13.8,24.7,0,15.41,14.48,29.45,40.76,39.54,4.83,1.85,9.97,3.55,15.38,5.07h0c-1.41,5.46-2.5,10.75-3.3,15.86-4.43,27.81.52,47.36,13.86,55.06,3.97,2.3,8.45,3.42,13.34,3.42,9.69,0,21.05-4.43,33.61-13.17,8.25-5.78,16.85-13.37,25.36-22.31,8.51-8.97,16.97-19.32,24.96-30.65,0,0,0,0,0,0h0c12.57-1.18,24.58-3.07,35.7-5.63,1.3,5.12,2.34,10.1,3.1,14.91,3.63,22.91.44,39.09-8.77,44.41-4.56,2.63-10.83,2.61-18.23.08.81-4.19.18-8.68-2.12-12.67-5.09-8.82-16.38-11.83-25.21-6.73-8.83,5.1-11.86,16.38-6.77,25.19,5.09,8.82,16.37,11.83,25.21,6.73,1.54-.89,2.89-1.97,4.06-3.19,5.32,1.99,10.34,3.03,14.95,3.03,4.91,0,9.37-1.13,13.32-3.41,13.34-7.7,18.26-27.26,13.85-55.07-.81-5.11-1.91-10.41-3.3-15.85,5.4-1.52,10.54-3.21,15.38-5.07,26.29-10.09,40.76-24.13,40.76-39.54,0-13.47-10.79-25.73-31.21-35.45ZM851.61,174.77c-4.54,1.74-9.37,3.33-14.46,4.77-3.99-13.02-9.44-26.67-16.14-40.42l-1.16,4.29-.79,2.95-2.96-.79-4.08-1.09c6.21,12.82,11.27,25.52,15,37.63-19.09,4.35-41,6.67-63.88,6.67-5.08,0-10.11-.14-15.08-.37v-4.88l-9.53,9.55,9.53,9.55v-3.79c4.97.22,10,.36,15.08.36,5.87,0,11.69-.15,17.41-.45,0,0,0,0,0,0,0,0,0,0,0,0-13.92,18.52-28.84,33.73-42.7,43.42-15.13,10.58-27.83,13.86-35.77,9.29-9.2-5.32-12.39-21.51-8.77-44.43.78-4.8,1.81-9.78,3.11-14.89h0c13.27,3.05,27.81,5.16,43.06,6.23l-3.12-3.13-2.16-2.17,2.16-2.17,2.99-3c-14.21-1.04-27.74-3-40.09-5.81,5.75-18.72,14.69-38.84,26.14-58.68,2.56-4.4,5.2-8.71,7.88-12.9l4.27,2.46-3.51-13.02-13.03,3.47,3.23,1.87c-2.69,4.2-5.31,8.49-7.87,12.91-2.93,5.09-5.72,10.21-8.31,15.3-9.2-21.51-14.92-42.24-16.3-59.18-1.49-18.12,2.04-30.59,9.89-35.11,9.2-5.32,24.81,0,42.84,14.61,3.77,3.05,7.56,6.44,11.36,10.12,0,0,0,0,0,0,0,0,0,0,0,0-9.28,9.97-18.38,21.52-26.93,34.19l4.33-1.15,2.96-.79.8,2.95,1.09,4.04c7.99-11.76,16.44-22.49,25.04-31.76,13.31,14.38,26.28,32.17,37.72,51.98,2.53,4.42,4.94,8.83,7.23,13.25l-4.24,2.44,13.03,3.48,3.51-13.02-3.27,1.89c-2.3-4.42-4.7-8.84-7.24-13.24-2.93-5.09-5.95-10.04-9.09-14.84,0,0,0,0,0-.01,0,0,.01,0,.02,0,23.34,2.82,44.24,8.25,59.6,15.56,16.29,7.75,25.27,17,25.27,26.03,0,10.63-12.42,21.49-34.07,29.79Z"/>
      <path class="st3" d="M763.15,118.26s-19.61,14.08-19.61,29.62c0,10.83,8.78,19.61,19.61,19.61s19.61-8.78,19.61-19.61c0-15.7-19.61-29.62-19.61-29.62Z"/>
    </g>
    <path class="st3" d="M763.23,118.34s-19.48,13.99-19.48,29.42c0,10.76,8.72,19.48,19.48,19.48s19.48-8.72,19.48-19.48c0-15.6-19.48-29.42-19.48-29.42Z"/>
  </g>
  <g>
    <g>
      <polygon class="st0" points="106.25 131.64 82.17 87.15 61.61 87.15 61.61 157.67 80.36 157.67 80.36 117.84 101.29 157.7 111.22 157.7 132.16 117.84 132.16 157.67 150.91 157.67 150.91 87.15 130.33 87.15 106.25 131.64"/>
      <rect class="st0" x="165.36" y="87.34" width="18.75" height="70.33"/>
      <rect class="st0" x="445.44" y="87.15" width="18.75" height="70.52"/>
      <path class="st0" d="M237.76,113.95h-21.44c-2.55,0-4.62-1.8-4.62-4.01s2.07-4.01,4.62-4.01h41.12v-18.75h-41.12c-12.89,0-23.37,10.21-23.37,22.76s9.99,22.24,22.45,22.72v.05h.92s0,0,0,0h20.5s.94,0,.94,0c2.03,0,3.69,1.41,3.69,3.13s-1.66,3.13-3.69,3.13h-40v18.75h40c12.38,0,22.44-9.81,22.44-21.88s-10.06-21.88-22.44-21.88Z"/>
      <path class="st0" d="M336.56,110.71c0-12.97-10.56-23.55-23.55-23.55h-24.95v-.02h-18.75v70.52h18.75v-23.41h14.63l15.45,23.44h22.44l-17.06-25.92c7.73-3.86,13.05-11.84,13.05-21.06ZM288.06,105.92h24.95c2.64,0,4.8,2.16,4.8,4.8s-2.16,4.8-4.8,4.8h-24.95v-9.59Z"/>
      <path class="st0" d="M405.11,87.17h-14.27c-15.66,0-28.39,12.74-28.39,28.39v13.67c0,15.66,12.74,28.39,28.39,28.39h14.27c15.64,0,28.38-12.74,28.38-28.39v-13.67c0-15.66-12.73-28.39-28.38-28.39ZM414.74,129.23c0,5.31-4.31,9.64-9.63,9.64h-14.27c-5.31,0-9.64-4.33-9.64-9.64v-13.67c0-5.31,4.33-9.64,9.64-9.64h14.27c5.31,0,9.63,4.33,9.63,9.64v13.67Z"/>
      <polygon class="st0" points="497.43 138.87 497.43 87.15 478.68 87.15 478.68 157.62 532.16 157.62 532.16 138.87 497.43 138.87"/>
    </g>
    <text class="st1" transform="translate(59.44 198.29)"><tspan x="0" y="0">FOR PETROLEUM SERVICES</tspan></text>
  </g>
  <g>
    <rect class="st0" x="1200.94" y="103.95" width="18.67" height="81.96"/>
    <path class="st0" d="M1097.5,131.94c0,5.29-4.3,9.59-9.59,9.59h-33.4v-37.59h-18.67v53.62c0,5.29-4.3,9.59-9.59,9.59h-3.85c-5.29,0-9.59-4.3-9.59-9.59v-8.54h-18.67v8.54c0,15.59,12.68,28.26,28.27,28.26h3.85c14.69,0,26.79-11.27,28.13-25.62h33.53c15.59,0,28.27-12.68,28.27-28.27v-27.99h-18.67v27.99Z"/>
    <path class="st0" d="M1144,160.2h28.34s.06,0,.09,0c-1.15,4.01-4.84,6.96-9.22,6.96h-14.2v18.67h14.2c15.59,0,28.27-12.68,28.27-28.26v-13.61h-.28c.14-.93.23-1.87.23-2.84v-18.06c0-10.53-8.56-19.09-19.09-19.09h-28.34c-10.53,0-19.09,8.56-19.09,19.09v18.06c0,10.53,8.56,19.09,19.09,19.09ZM1143.58,123.05c0-.23.19-.42.42-.42h28.34c.23,0,.42.19.42.42v18.06c0,.23-.19.42-.42.42h-28.34c-.23,0-.42-.19-.42-.42v-18.06Z"/>
    <path class="st0" d="M1412.97,155.41h44.52c10.17,0,18.45-8.28,18.45-18.45v-14.55c0-10.17-8.28-18.45-18.45-18.45h-29.63c-10.17,0-18.45,8.28-18.45,18.45v14.33h-14.49c.02-.4.06-.81.06-1.22v-11.67c0-10.97-8.92-19.89-19.89-19.89h-31.42c-16.17,0-29.53,12.24-31.33,27.93v-27.96h-18.67v32.79h-18.26v-32.79h-18.67v53.62c0,5.29-4.3,9.59-9.59,9.59h-9.65v18.67h9.65c15.59,0,28.27-12.68,28.27-28.26v-2.15h137.54ZM1428.09,122.63h29.18v14.11h-29.18v-14.11ZM1332.02,136.74c-.67,0-1.22-.55-1.22-1.22,0-7.1,5.78-12.88,12.88-12.88h31.42c.67,0,1.22.55,1.22,1.22v11.67c0,.67-.55,1.22-1.22,1.22h-43.08Z"/>
    <rect class="st0" x="1097.44" y="167.16" width="18.67" height="18.67"/>
    <rect class="st0" x="1068.96" y="167.16" width="18.67" height="18.67"/>
    <text class="st2" transform="translate(1284.02 179.55)"><tspan x="0" y="0" xml:space="preserve">للخدمــات  البـــــترولية</tspan></text>
  </g>
</svg>